<svg width="25" height="25" viewBox="0 0 25 25" fill="none" xmlns="http://www.w3.org/2000/svg">
<mask id="mask0_301_122" style="mask-type:alpha" maskUnits="userSpaceOnUse" x="0" y="0" width="25" height="25">
<rect x="0.299683" y="0.74231" width="24" height="24" fill="#D9D9D9"/>
</mask>
<g mask="url(#mask0_301_122)">
<path d="M5.29968 22.7423C4.74968 22.7423 4.27868 22.5466 3.88668 22.1553C3.49535 21.7633 3.29968 21.2923 3.29968 20.7423V6.74231H5.29968V20.7423H16.2997V22.7423H5.29968ZM9.29968 18.7423C8.74968 18.7423 8.27902 18.5466 7.88768 18.1553C7.49568 17.7633 7.29968 17.2923 7.29968 16.7423V4.74231C7.29968 4.19231 7.49568 3.72131 7.88768 3.32931C8.27902 2.93798 8.74968 2.74231 9.29968 2.74231H18.2997C18.8497 2.74231 19.3207 2.93798 19.7127 3.32931C20.104 3.72131 20.2997 4.19231 20.2997 4.74231V16.7423C20.2997 17.2923 20.104 17.7633 19.7127 18.1553C19.3207 18.5466 18.8497 18.7423 18.2997 18.7423H9.29968ZM9.29968 16.7423H18.2997V4.74231H9.29968V16.7423Z" fill="#1C1B1F"/>
</g>
</svg>
