<svg width="19" height="19" viewBox="0 0 19 19" fill="none" xmlns="http://www.w3.org/2000/svg">
<mask id="mask0_301_122" style="mask-type:alpha" maskUnits="userSpaceOnUse" x="0" y="0" width="19" height="19">
<rect x="0.299683" y="0.74231" width="18" height="18" fill="#D9D9D9"/>
</mask>
<g mask="url(#mask0_301_122)">
<path d="M4.04968 17.2423C3.63718 17.2423 3.28393 17.0956 2.98993 16.8021C2.69643 16.5081 2.54968 16.1548 2.54968 15.7423V5.24231H4.04968V15.7423H12.2997V17.2423H4.04968ZM7.04968 14.2423C6.63718 14.2423 6.28418 14.0956 5.99068 13.8021C5.69668 13.5081 5.54968 13.1548 5.54968 12.7423V3.74231C5.54968 3.32981 5.69668 2.97656 5.99068 2.68256C6.28418 2.38906 6.63718 2.24231 7.04968 2.24231H13.7997C14.2122 2.24231 14.5654 2.38906 14.8594 2.68256C15.1529 2.97656 15.2997 3.32981 15.2997 3.74231V12.7423C15.2997 13.1548 15.1529 13.5081 14.8594 13.8021C14.5654 14.0956 14.2122 14.2423 13.7997 14.2423H7.04968ZM7.04968 12.7423H13.7997V3.74231H7.04968V12.7423Z" fill="#1C1B1F"/>
</g>
</svg>
