<svg width="19" height="19" viewBox="0 0 19 19" fill="none" xmlns="http://www.w3.org/2000/svg">
<mask id="mask0_301_128" style="mask-type:alpha" maskUnits="userSpaceOnUse" x="0" y="0" width="19" height="19">
<rect x="0.948853" y="0.810669" width="18" height="18" fill="#D9D9D9"/>
</mask>
<g mask="url(#mask0_301_128)">
<path d="M9.94885 15.8107C8.27385 15.8107 6.8551 15.2294 5.6926 14.0669C4.5301 12.9044 3.94885 11.4857 3.94885 9.81067C3.94885 8.13567 4.5301 6.71692 5.6926 5.55442C6.8551 4.39192 8.27385 3.81067 9.94885 3.81067C10.8114 3.81067 11.6364 3.98892 12.4239 4.34542C13.2114 4.70142 13.8864 5.21067 14.4489 5.87317V3.81067H15.9489V9.06067H10.6989V7.56067H13.8489C13.4489 6.86067 12.9021 6.31067 12.2086 5.91067C11.5146 5.51067 10.7614 5.31067 9.94885 5.31067C8.69885 5.31067 7.63635 5.74817 6.76135 6.62317C5.88635 7.49817 5.44885 8.56067 5.44885 9.81067C5.44885 11.0607 5.88635 12.1232 6.76135 12.9982C7.63635 13.8732 8.69885 14.3107 9.94885 14.3107C10.9114 14.3107 11.7801 14.0357 12.5551 13.4857C13.3301 12.9357 13.8739 12.2107 14.1864 11.3107H15.7614C15.4114 12.6357 14.6989 13.7169 13.6239 14.5544C12.5489 15.3919 11.3239 15.8107 9.94885 15.8107Z" fill="#1C1B1F"/>
</g>
</svg>
