<svg width="19" height="19" viewBox="0 0 19 19" fill="none" xmlns="http://www.w3.org/2000/svg">
<mask id="mask0_303_128" style="mask-type:alpha" maskUnits="userSpaceOnUse" x="0" y="0" width="19" height="19">
<rect x="0.289307" y="0.747925" width="18" height="18" fill="#D9D9D9"/>
</mask>
<g mask="url(#mask0_303_128)">
<path d="M7.17058 17.2479L6.88933 14.8854C6.76433 14.8104 6.62683 14.7292 6.47683 14.6417C6.32683 14.5542 6.18933 14.4729 6.06433 14.3979L3.87058 15.3167L1.75183 11.6604L3.62683 10.2354V9.26043L1.75183 7.83543L3.87058 4.17917L6.06433 5.09793C6.18933 5.02293 6.32683 4.94168 6.47683 4.85418C6.62683 4.76668 6.76433 4.68542 6.88933 4.61042L7.17058 2.24792H11.4081L11.6893 4.61042C11.8143 4.68542 11.9518 4.76668 12.1018 4.85418C12.2518 4.94168 12.3893 5.02293 12.5143 5.09793L14.7081 4.17917L16.8268 7.83543L14.9706 9.26043V10.2354L16.8268 11.6604L14.7081 15.3167L12.5143 14.3979C12.3893 14.4729 12.2518 14.5542 12.1018 14.6417C11.9518 14.7292 11.8143 14.8104 11.6893 14.8854L11.4081 17.2479H7.17058ZM9.28933 12.4292C10.0268 12.4292 10.6581 12.1667 11.1831 11.6417C11.7081 11.1167 11.9706 10.4854 11.9706 9.74793C11.9706 9.01043 11.7081 8.37918 11.1831 7.85418C10.6581 7.32918 10.0268 7.06668 9.28933 7.06668C8.55183 7.06668 7.92058 7.32918 7.39558 7.85418C6.87058 8.37918 6.60808 9.01043 6.60808 9.74793C6.60808 10.4854 6.87058 11.1167 7.39558 11.6417C7.92058 12.1667 8.55183 12.4292 9.28933 12.4292ZM9.28933 10.8542C8.98933 10.8542 8.72996 10.7448 8.51121 10.5261C8.29246 10.3073 8.18308 10.0479 8.18308 9.74793C8.18308 9.44793 8.29246 9.18855 8.51121 8.9698C8.72996 8.75105 8.98933 8.64168 9.28933 8.64168C9.58933 8.64168 9.84871 8.75105 10.0675 8.9698C10.2862 9.18855 10.3956 9.44793 10.3956 9.74793C10.3956 10.0479 10.2862 10.3073 10.0675 10.5261C9.84871 10.7448 9.58933 10.8542 9.28933 10.8542ZM8.53933 15.6729H10.0393L10.2643 13.7229C10.6268 13.6229 10.9768 13.4729 11.3143 13.2729C11.6518 13.0729 11.9581 12.8354 12.2331 12.5604L14.0518 13.3292L14.8018 12.0917L13.2081 10.8729C13.2706 10.6979 13.3143 10.5167 13.3393 10.3292C13.3643 10.1417 13.3768 9.94793 13.3768 9.74793C13.3768 9.57293 13.3643 9.3948 13.3393 9.21355C13.3143 9.0323 13.2768 8.84168 13.2268 8.64168L14.8206 7.40418L14.0706 6.16667L12.2518 6.95418C11.9643 6.66668 11.655 6.42605 11.3237 6.2323C10.9925 6.03855 10.6456 5.89168 10.2831 5.79168L10.0393 3.82292H8.53933L8.29558 5.79168C7.93308 5.89168 7.58621 6.03855 7.25496 6.2323C6.92371 6.42605 6.62058 6.66043 6.34558 6.93543L4.52683 6.16667L3.77683 7.40418L5.35183 8.62293C5.30183 8.82293 5.26433 9.01668 5.23933 9.20418C5.21433 9.39168 5.20183 9.57293 5.20183 9.74793C5.20183 9.92293 5.21433 10.1011 5.23933 10.2823C5.26433 10.4636 5.30183 10.6542 5.35183 10.8542L3.77683 12.0917L4.52683 13.3292L6.34558 12.5604C6.62058 12.8354 6.92371 13.0698 7.25496 13.2636C7.58621 13.4573 7.93308 13.6042 8.29558 13.7042L8.53933 15.6729Z" fill="#1C1B1F"/>
</g>
</svg>
